<svg width="201" height="63" viewBox="0 0 201 63" fill="none" xmlns="http://www.w3.org/2000/svg">
<path d="M156.062 20.5233C152.811 18.0419 148.681 16.5781 144.187 16.5781C133.702 16.5781 125.509 24.6887 125.509 34.7272C125.509 40.2374 127.983 45.1822 131.949 48.5145C132.386 48.8835 132.835 49.2226 133.302 49.5499C136.34 51.6623 140.088 52.906 144.187 52.906C145.023 52.906 145.842 52.8517 146.647 52.7501C147.108 52.6919 147.387 52.2296 147.236 51.7979L144.751 44.6645C146.431 43.2543 148.172 41.5703 149.852 39.6721C151.641 37.6489 153.169 35.6019 154.388 33.668L162.335 34.4644C162.783 34.5094 163.173 34.1611 163.149 33.7195C162.849 28.3235 160.148 23.6206 156.062 20.5233ZM147.286 37.6132C140.688 45.0692 133.89 49.8712 132.101 48.3479C130.876 47.3066 132.295 43.5934 135.412 38.9699C134.769 37.6905 134.418 36.2505 134.418 34.7331C134.418 29.4134 138.735 25.1112 144.26 25.1112C145.346 25.1112 146.383 25.2718 147.359 25.5753C151.034 22.4334 154.158 20.6899 155.589 21.1362C155.74 21.1838 155.874 21.2552 155.983 21.3504C157.778 22.8797 153.879 30.1572 147.286 37.6132Z" fill="#101010"/>
<path d="M22.7297 33.7395C22.726 33.7395 22.7225 33.7379 22.7204 33.7349C22.6794 33.6789 22.703 33.5985 22.7754 33.5766C28.9415 31.8181 32.6915 27.1212 32.6915 21.0199C32.6915 12.9689 26.4052 7.55859 17.056 7.55859H0.338405C0.281153 7.55859 0.235352 7.60354 0.235352 7.65972V52.7122C0.235352 52.7684 0.281153 52.8134 0.338405 52.8134H8.37657C8.43383 52.8134 8.47963 52.7684 8.47963 52.7122V34.4643C8.47963 34.4081 8.52543 34.3631 8.58268 34.3631H13.1571C13.1857 34.3631 13.2144 34.3744 13.2373 34.3968L28.8047 52.7074C28.8423 52.7517 28.8827 52.8078 28.9415 52.8078H38.9949C39.0808 52.8078 39.1266 52.7066 39.075 52.6448L22.739 33.7437C22.7367 33.741 22.7333 33.7395 22.7297 33.7395ZM8.4739 15.16C8.4739 15.1039 8.5197 15.0589 8.57696 15.0589H17.056C21.493 15.0589 24.2525 17.3455 24.2525 21.0199C24.2525 24.6942 21.43 26.919 17.056 26.919H8.57696C8.5197 26.919 8.4739 26.874 8.4739 26.8179V15.16Z" fill="#101010"/>
<path d="M53.7588 16.5812C53.7588 16.5795 53.7574 16.5781 53.7557 16.5781C43.3581 16.5797 35.5234 24.3827 35.5234 34.7421C35.5234 45.1024 43.4945 52.906 54.4701 52.906C61.2271 52.906 67.2912 49.8706 70.7065 44.7813L71.1848 44.0664C71.2216 44.0179 71.2032 43.9452 71.148 43.9149L64.3419 39.8556C64.2929 39.8253 64.2316 39.8374 64.1948 39.8859L63.7533 40.516C61.7605 43.3393 58.3698 44.9631 54.4639 44.9631C49.4115 44.9631 45.7509 42.4851 44.4265 38.2682C44.402 38.2016 44.4572 38.1289 44.5308 38.1289H71.7489C71.8041 38.1289 71.8531 38.0865 71.8593 38.0319L71.9206 37.2746C71.988 36.3234 71.988 35.5236 71.988 34.7481C71.988 24.3949 64.1473 16.5857 53.7619 16.5842C53.7602 16.5842 53.7588 16.5828 53.7588 16.5812ZM53.7588 24.4605C58.1 24.4605 61.6134 27.0112 63.0236 30.9069C63.0482 30.9736 62.9991 31.0463 62.9194 31.0463H44.6595C44.5859 31.0463 44.5308 30.9736 44.5553 30.9069C45.9472 26.9567 49.3747 24.4605 53.7527 24.4605H53.7588Z" fill="#101010"/>
<path d="M93.1794 16.6083C93.1775 16.6101 93.175 16.6111 93.1724 16.6111C89.1895 16.6118 85.876 17.6736 83.3063 19.7685C83.2376 19.8247 83.1403 19.7798 83.1403 19.6899V17.3583C83.1403 17.3021 83.0944 17.2572 83.0372 17.2572H75.3941C75.3368 17.2572 75.291 17.3021 75.291 17.3583V62.54C75.291 62.5962 75.3368 62.6412 75.3941 62.6412H83.2376C83.2948 62.6412 83.3406 62.5962 83.3406 62.54V47.3596C83.3406 47.2753 83.4437 47.2304 83.5067 47.281C86.0372 49.281 89.2777 50.2923 93.1822 50.2923C102.738 50.2923 109.946 43.0561 109.946 33.4489C109.946 23.8431 102.74 16.6075 93.1863 16.6055C93.1837 16.6055 93.1812 16.6065 93.1794 16.6083ZM92.5868 42.8538C87.0162 42.8538 83.2719 39.0784 83.2719 33.4545C83.2719 27.8307 87.0162 24.117 92.5868 24.117C97.8196 24.117 101.759 28.1397 101.759 33.4545C101.759 38.7694 97.8196 42.8538 92.5868 42.8538Z" fill="#101010"/>
<path d="M121.51 17.2734H113.667C113.609 17.2734 113.563 17.3184 113.563 17.3746V52.73C113.563 52.7862 113.609 52.8312 113.667 52.8312H121.51C121.567 52.8312 121.613 52.7862 121.613 52.73V17.3746C121.613 17.3184 121.567 17.2734 121.51 17.2734Z" fill="#101010"/>
<path d="M200.623 52.6647L200.625 52.664C200.68 52.7261 200.634 52.8304 200.549 52.8304H190.384C190.329 52.8304 190.26 52.8402 190.226 52.7967L177.647 39.1543C177.61 39.1141 177.572 39.0602 177.517 39.0602H174.82C174.763 39.0602 174.717 39.1051 174.717 39.1613V52.7293C174.717 52.7855 174.671 52.8304 174.614 52.8304H166.782C166.725 52.8304 166.679 52.7855 166.679 52.7293V7.7105C166.679 7.65432 166.725 7.60938 166.782 7.60938H174.614C174.671 7.60938 174.717 7.65432 174.717 7.7105V31.7115C174.717 31.7677 174.763 31.8127 174.82 31.8127H178.103C178.158 31.8127 178.228 31.8225 178.261 31.779L188.556 20.5357C188.593 20.4954 188.631 20.4414 188.686 20.4414H199.038C199.123 20.4414 199.169 20.5425 199.112 20.6099L184.959 35.678C184.925 35.7173 184.925 35.7735 184.959 35.8128L200.621 52.6654L200.623 52.6647Z" fill="#101010"/>
<path d="M116.592 1.12862C116.999 0.634212 117.766 0.634212 118.172 1.12862L120.628 4.12875C120.674 4.18493 120.726 4.23549 120.783 4.28044L123.846 6.69065C124.35 7.08955 124.35 7.84239 123.846 8.24128L120.783 10.6515C120.726 10.6964 120.674 10.747 120.628 10.8032L118.172 13.8033C117.766 14.2977 116.999 14.2977 116.592 13.8033L114.136 10.8032C114.09 10.747 114.039 10.6964 113.981 10.6515L110.918 8.24128C110.415 7.84239 110.415 7.08955 110.918 6.69065L113.981 4.28044C114.039 4.23549 114.09 4.18493 114.136 4.12875L116.592 1.12862Z" fill="#050202"/>
</svg>
